<svg width="83" height="57" viewBox="0 0 83 57" fill="none" xmlns="http://www.w3.org/2000/svg">
<g clip-path="url(#clip0_1_614)">
<path d="M11.1273 51.6223C10.9187 51.6768 10.7328 51.704 10.5712 51.704C10.4095 51.704 10.2656 51.6944 10.1411 51.6752C10.0166 51.656 9.88408 51.6175 9.74182 51.5598C9.59955 51.5021 9.46699 51.438 9.34251 51.3642C9.21803 51.2905 9.09355 51.1991 8.96906 51.0901C8.7395 50.9074 8.53257 50.7103 8.34504 50.4971C8.15751 50.2839 7.79862 49.8864 7.26512 49.3013C6.73163 48.7163 6.3792 48.3268 6.20461 48.1344C6.03001 47.9421 5.89583 47.8411 5.80045 47.8315V47.7577C6.08983 47.7577 6.28221 47.7513 6.3792 47.7385C6.4762 47.7257 6.57967 47.7032 6.6896 47.6712C6.79953 47.6391 6.89168 47.5959 6.96605 47.5414C7.26027 47.3538 7.40739 47.0429 7.40739 46.6085C7.40739 46.2478 7.32656 45.9593 7.16489 45.7413C7.00323 45.5233 6.77528 45.4127 6.48105 45.4079H5.55472V49.8223C5.55472 49.9457 5.59998 50.0547 5.69213 50.1476C5.78428 50.2406 5.89745 50.2887 6.03163 50.2887H6.12054L6.12862 50.3624H4.49258V50.2887H4.58958C4.71406 50.2887 4.82399 50.2438 4.91776 50.1557C5.01153 50.0675 5.06164 49.9585 5.06649 49.8303V45.7189C5.06164 45.5907 5.01314 45.4801 4.92099 45.3887C4.82884 45.2973 4.7173 45.2524 4.58797 45.2524H4.49097V45.1787H6.50854C6.94665 45.1787 7.29907 45.3005 7.56582 45.5458C7.83257 45.7894 7.96513 46.1132 7.96513 46.5155C7.96513 46.9178 7.84227 47.2641 7.59977 47.5526C7.35566 47.8411 7.05658 47.9854 6.70253 47.9854H6.69445C6.8642 48.1633 7.05496 48.37 7.26997 48.6073C8.13164 49.5498 8.68454 50.1428 8.92865 50.3849C9.17276 50.6269 9.38777 50.8257 9.57531 50.9811C9.76284 51.1366 9.92773 51.252 10.0716 51.3258C10.3658 51.4844 10.6568 51.563 10.9462 51.563C11.006 51.563 11.0658 51.5582 11.1257 51.5486V51.6223H11.1273Z" fill="url(#paint0_linear_1_614)"/>
<path d="M14.3412 45.2524H14.2216C14.1165 45.2524 14.0259 45.2861 13.9483 45.3518C13.8707 45.4191 13.8303 45.5009 13.8255 45.6003V48.5335C13.8255 49.1106 13.6412 49.5786 13.2726 49.9329C12.904 50.2887 12.4142 50.4666 11.8014 50.4666C11.1887 50.4666 10.6924 50.2903 10.3109 49.9377C9.92937 49.585 9.73861 49.1186 9.73861 48.5416V45.6227C9.73861 45.4752 9.67394 45.3663 9.54461 45.2973C9.4848 45.2669 9.4169 45.2524 9.34253 45.2524H9.2229V45.1787H10.7393V45.2524H10.6197C10.5097 45.2524 10.4176 45.2861 10.3432 45.3518C10.2689 45.4191 10.2285 45.5041 10.2236 45.6067V48.4358C10.2236 48.9743 10.3691 49.4087 10.6601 49.7389C10.9511 50.0691 11.3407 50.2358 11.8289 50.2358C12.3172 50.2358 12.7132 50.0787 13.0172 49.7662C13.3211 49.452 13.4731 49.0417 13.4731 48.5335V45.6083C13.4682 45.5041 13.4278 45.4191 13.3534 45.3534C13.2791 45.2861 13.1869 45.254 13.077 45.254H12.9573V45.1803H14.3396V45.254L14.3412 45.2524Z" fill="url(#paint1_linear_1_614)"/>
<path d="M16.9843 50.3641H15.1608L15.1689 50.2904H15.2578C15.3871 50.2904 15.4986 50.2455 15.5908 50.1573C15.6829 50.0692 15.7314 49.9602 15.7363 49.832V45.7142C15.7314 45.5859 15.6829 45.4769 15.5908 45.3888C15.4986 45.3006 15.3871 45.2557 15.2578 45.2557H15.1689L15.1608 45.182H16.6481C17.1606 45.182 17.5599 45.2942 17.8428 45.5186C18.1273 45.743 18.268 46.0428 18.268 46.4178C18.268 46.7144 18.1887 46.9596 18.0287 47.1552C17.8686 47.3507 17.6746 47.4805 17.4467 47.5447C17.8395 47.604 18.1516 47.7642 18.3811 48.0255C18.6107 48.2868 18.7255 48.617 18.7255 49.0145C18.7255 49.412 18.5719 49.7374 18.2663 49.989C17.9608 50.2407 17.5324 50.3673 16.9843 50.3673V50.3641ZM16.2229 50.09H16.9698C17.3481 50.09 17.6423 49.989 17.8509 49.7871C18.0594 49.5851 18.1645 49.295 18.1645 48.9199C18.1645 48.7083 18.1289 48.5208 18.0562 48.3605C17.9834 48.2002 17.8929 48.0736 17.783 47.979C17.4936 47.7418 17.0603 47.6232 16.4832 47.6232H16.4751V47.5559C17.1331 47.5559 17.5291 47.3138 17.6633 46.8298C17.694 46.7208 17.7086 46.6006 17.7086 46.4675C17.7086 46.1325 17.6148 45.8728 17.4289 45.6901C17.243 45.5074 16.9714 45.416 16.619 45.416H16.2229V50.09Z" fill="url(#paint2_linear_1_614)"/>
<path d="M23.9327 45.2526H23.8276C23.6789 45.2526 23.5383 45.2926 23.4057 45.3744C23.2731 45.4561 23.1632 45.5587 23.0727 45.6821L21.6015 48.0528V49.8224C21.6015 49.9506 21.6468 50.0612 21.7389 50.1526C21.8311 50.2439 21.9443 50.2904 22.0784 50.2904H22.1673V50.3641H20.5394V50.2904H20.6364C20.7657 50.2904 20.8773 50.2455 20.9694 50.1574C21.0616 50.0692 21.1101 49.9602 21.1149 49.832V48.0464L19.6874 45.6837C19.6131 45.5651 19.5064 45.4641 19.3706 45.3808C19.2331 45.2974 19.0909 45.2542 18.9405 45.2542H18.8354V45.1804H20.6736V45.2542H20.5766C20.4666 45.2542 20.3826 45.3038 20.3228 45.4016C20.292 45.4561 20.2775 45.509 20.2775 45.5603C20.2775 45.6116 20.2904 45.6629 20.3147 45.7126L21.435 47.7867L22.6297 45.7046C22.654 45.6549 22.6669 45.6052 22.6669 45.5571C22.6669 45.509 22.6491 45.4561 22.6152 45.4016C22.5553 45.3022 22.4713 45.2542 22.3613 45.2542H22.2724V45.1804H23.9311V45.2542L23.9327 45.2526Z" fill="url(#paint3_linear_1_614)"/>
<path d="M30.1115 45.8376C30.1115 45.719 30.0694 45.6164 29.9838 45.5298C29.8997 45.4433 29.7995 45.3984 29.6847 45.3936H28.2653V49.8303C28.2701 49.9586 28.3186 50.0676 28.4108 50.1557C28.5029 50.2439 28.6129 50.2888 28.7438 50.2888H28.8408V50.3625H27.2048V50.2888H27.3018C27.4311 50.2888 27.5426 50.2439 27.6348 50.1557C27.7269 50.0676 27.7754 49.9602 27.7803 49.8368V45.392H26.3609C26.2412 45.3968 26.141 45.4433 26.0586 45.5282C25.9761 45.6148 25.9357 45.7174 25.9357 45.836V45.9626L25.8613 45.9706V45.0377C25.9357 45.0682 26.065 45.097 26.2493 45.1259C26.4336 45.1547 26.6034 45.1708 26.7569 45.1708H29.2821C29.5263 45.1708 29.7283 45.1515 29.8916 45.1147C30.0533 45.0778 30.1519 45.0522 30.1875 45.0361V45.969L30.1131 45.961V45.8344L30.1115 45.8376Z" fill="url(#paint4_linear_1_614)"/>
<path d="M32.315 45.408H31.8364V49.8224C31.8364 49.9506 31.8817 50.0612 31.9738 50.1526C32.066 50.2439 32.1792 50.2904 32.3133 50.2904H32.4022L32.4103 50.3641H30.7743V50.2904H30.8713C31.0006 50.2904 31.1122 50.2455 31.2043 50.1574C31.2965 50.0692 31.345 49.9602 31.3498 49.832V45.7206C31.345 45.5924 31.2965 45.4818 31.2043 45.3904C31.1122 45.299 31.0006 45.2542 30.8713 45.2542H30.7743V45.1804H32.7919C33.2445 45.1804 33.6018 45.3054 33.8605 45.5539C34.1191 45.8039 34.2485 46.1261 34.2485 46.5236C34.2485 46.9211 34.1256 47.2642 33.8782 47.5527C33.6325 47.8412 33.3318 47.9855 32.9778 47.9855C33.0521 48.0207 33.1411 48.088 33.2429 48.189C33.3448 48.29 33.4353 48.3958 33.5161 48.5032C33.9445 49.1107 34.2226 49.4842 34.3535 49.6252C34.4829 49.7663 34.575 49.8624 34.63 49.9137C34.6849 49.965 34.7448 50.0163 34.8094 50.066C34.8741 50.1157 34.9388 50.1542 35.0034 50.1846C35.1473 50.2535 35.3025 50.2888 35.4658 50.2888V50.3625H35.0552C34.8418 50.3625 34.6413 50.3241 34.457 50.2471C34.2727 50.1702 34.1337 50.0916 34.0431 50.0099C33.951 49.9282 33.8718 49.8496 33.8039 49.7727C33.736 49.6957 33.5517 49.4409 33.2478 49.0065C32.9438 48.5721 32.7676 48.3237 32.7175 48.2628C32.6674 48.2002 32.6156 48.1409 32.5607 48.0816C32.4006 47.9133 32.2422 47.83 32.0822 47.83V47.7562C32.1226 47.7611 32.1743 47.7643 32.239 47.7643C32.3036 47.7643 32.3828 47.7627 32.4782 47.7562C33.0958 47.7418 33.4838 47.4854 33.6438 46.9853C33.6729 46.8859 33.6891 46.7945 33.6891 46.708V46.5413C33.6794 46.2111 33.5921 45.9434 33.4272 45.7414C33.2623 45.5395 33.0408 45.4305 32.7628 45.416C32.6431 45.4112 32.4944 45.408 32.315 45.408Z" fill="url(#paint5_linear_1_614)"/>
<path d="M40.5097 50.2888H40.5696V50.3625H38.8883V50.2888H38.9562C39.0612 50.2888 39.1388 50.2551 39.1922 50.1894C39.2439 50.1221 39.2714 50.0595 39.2714 50.0002C39.2714 49.9409 39.2617 49.8816 39.2407 49.8223L38.7622 48.5625H36.7446L36.2434 49.8287C36.224 49.888 36.2127 49.9457 36.2127 50.0034C36.2127 50.0611 36.2386 50.1221 36.2919 50.1894C36.3437 50.2567 36.4229 50.2888 36.528 50.2888H36.5959V50.3625H35.094V50.2888H35.1619C35.2864 50.2888 35.4076 50.2487 35.5273 50.1701C35.6469 50.0916 35.7439 49.9746 35.8182 49.8223L37.506 45.8376C37.6903 45.4368 37.7825 45.1836 37.7825 45.0746H37.8504L39.8518 49.8223C39.9213 49.9762 40.0167 50.0916 40.1363 50.1701C40.2559 50.2487 40.3804 50.2888 40.5097 50.2888ZM36.8335 48.3413H38.6716L37.7744 45.9642L36.8335 48.3413Z" fill="url(#paint6_linear_1_614)"/>
<path d="M46.2925 45.2525C46.168 45.2525 46.0613 45.2958 45.9708 45.3823C45.8803 45.4689 45.8334 45.5731 45.8285 45.6965V49.5177C45.8285 49.8047 45.8463 50.0755 45.8803 50.332L45.8948 50.465H45.8269L41.7546 46.1549V49.8431C41.7546 49.9665 41.7999 50.0707 41.8888 50.1573C41.9777 50.2438 42.086 50.2871 42.2105 50.2871H42.3528V50.3609H40.8137V50.2871H40.956C41.0805 50.2871 41.1872 50.2438 41.2777 50.1573C41.3666 50.0707 41.4119 49.9633 41.4119 49.8351V45.9914C41.4119 45.6901 41.3941 45.4208 41.3601 45.1836L41.3456 45.0649H41.42L45.4923 49.3751V45.7013C45.4874 45.5731 45.4405 45.4657 45.35 45.3791C45.2595 45.2925 45.1528 45.2493 45.0283 45.2493H44.886V45.1755H46.4251V45.2493H46.2909L46.2925 45.2525Z" fill="url(#paint7_linear_1_614)"/>
<path d="M49.1766 50.2887C49.306 50.2887 49.4175 50.2422 49.5096 50.1509C49.6018 50.0595 49.6503 49.9505 49.6551 49.8207V45.7173C49.6503 45.5891 49.6018 45.4785 49.5096 45.3871C49.4175 45.2957 49.306 45.2509 49.1766 45.2509H49.0796V45.1771H50.7157V45.2509H50.6187C50.4392 45.2509 50.3018 45.3278 50.208 45.4801C50.1628 45.5538 50.1401 45.6339 50.1401 45.7173V50.1316H51.2087C51.5773 50.1316 51.8586 50.0499 52.0526 49.8864C52.2466 49.7229 52.4083 49.4809 52.5376 49.1603H52.612L52.1787 50.3608H49.078V50.2871H49.175L49.1766 50.2887Z" fill="url(#paint8_linear_1_614)"/>
<path d="M58.2087 45.2524H58.0891C57.984 45.2524 57.8935 45.2861 57.8159 45.3518C57.7383 45.4191 57.6979 45.5009 57.693 45.6003V48.5335C57.693 49.1106 57.5087 49.5786 57.1401 49.9329C56.7716 50.2887 56.2817 50.4666 55.669 50.4666C55.0563 50.4666 54.56 50.2903 54.1785 49.9377C53.7969 49.585 53.6062 49.1186 53.6062 48.5416V45.6227C53.6062 45.4752 53.5415 45.3663 53.4122 45.2973C53.3524 45.2669 53.2845 45.2524 53.2101 45.2524H53.0905V45.1787H54.6069V45.2524H54.4872C54.3773 45.2524 54.2852 45.2861 54.2108 45.3518C54.1364 45.4191 54.096 45.5041 54.0912 45.6067V48.4358C54.0912 48.9743 54.2367 49.4087 54.5277 49.7389C54.8186 50.0691 55.2083 50.2358 55.6965 50.2358C56.1847 50.2358 56.5808 50.0787 56.8847 49.7662C57.1886 49.452 57.3406 49.0417 57.3406 48.5335V45.6083C57.3358 45.5041 57.2953 45.4191 57.221 45.3534C57.1466 45.2861 57.0545 45.254 56.9445 45.254H56.8249V45.1803H58.2071V45.254L58.2087 45.2524Z" fill="url(#paint9_linear_1_614)"/>
<path d="M63.6165 50.364H61.7929V50.2903H61.8818C61.9918 50.2903 62.0758 50.2406 62.1356 50.1428C62.1696 50.0883 62.1874 50.0371 62.1874 49.9874C62.1874 49.9377 62.1744 49.888 62.1502 49.8399L60.9991 48.0399L59.8481 49.8319C59.8174 49.8816 59.8028 49.9313 59.8028 49.9842C59.8028 50.0371 59.8206 50.0867 59.8546 50.1364C59.9192 50.2406 60.0033 50.2919 60.1084 50.2919H60.2054V50.3656H58.5095V50.2919H58.6146C58.7633 50.2919 58.9056 50.2502 59.0398 50.1653C59.174 50.0819 59.2855 49.9777 59.376 49.8543L60.8035 47.7433L59.4957 45.6916C59.4068 45.5682 59.2952 45.464 59.1626 45.3807C59.0301 45.2973 58.8894 45.2541 58.7407 45.2541H58.6356V45.1803H60.443V45.2541H60.3541C60.249 45.2541 60.165 45.3038 60.1003 45.4015C60.0647 45.456 60.0486 45.5073 60.0486 45.557C60.0486 45.6067 60.0615 45.6564 60.0857 45.7045L61.1172 47.3041L62.134 45.7109C62.1631 45.6612 62.1793 45.6115 62.1793 45.5586C62.1793 45.5057 62.1647 45.456 62.134 45.4063C62.0742 45.3021 61.9901 45.2509 61.8802 45.2509H61.7913V45.1771H63.4726V45.2509H63.3675C63.2188 45.2509 63.0781 45.2925 62.9456 45.3775C62.813 45.4608 62.7031 45.565 62.6126 45.6884L61.3047 47.5991L62.7532 49.8575C62.8728 50.0258 63.0248 50.1493 63.2091 50.2278C63.3093 50.2679 63.4079 50.2871 63.5082 50.2871H63.6133V50.3608L63.6165 50.364Z" fill="url(#paint10_linear_1_614)"/>
<path d="M69.0176 45.2524H68.8979C68.7929 45.2524 68.7023 45.2861 68.6247 45.3518C68.5471 45.4191 68.5067 45.5009 68.5019 45.6003V48.5335C68.5019 49.1106 68.3176 49.5786 67.949 49.9329C67.5804 50.2887 67.0905 50.4666 66.4778 50.4666C65.8651 50.4666 65.3688 50.2903 64.9873 49.9377C64.6058 49.585 64.415 49.1186 64.415 48.5416V45.6227C64.415 45.4752 64.3503 45.3663 64.221 45.2973C64.1612 45.2669 64.0933 45.2524 64.0189 45.2524H63.8993V45.1787H65.4157V45.2524H65.2961C65.1861 45.2524 65.094 45.2861 65.0196 45.3518C64.9453 45.4191 64.9048 45.5041 64.9 45.6067V48.4358C64.9 48.9743 65.0455 49.4087 65.3365 49.7389C65.6275 50.0691 66.0171 50.2358 66.5053 50.2358C66.9935 50.2358 67.3896 50.0787 67.6936 49.7662C67.9975 49.452 68.1494 49.0417 68.1494 48.5335V45.6083C68.1446 45.5041 68.1042 45.4191 68.0298 45.3534C67.9554 45.2861 67.8633 45.254 67.7534 45.254H67.6337V45.1803H69.016V45.254L69.0176 45.2524Z" fill="url(#paint11_linear_1_614)"/>
<path d="M71.3795 45.408H70.901V49.8224C70.901 49.9506 70.9463 50.0612 71.0384 50.1526C71.1306 50.2439 71.2437 50.2904 71.3779 50.2904H71.4668L71.4749 50.3641H69.8389V50.2904H69.9359C70.0652 50.2904 70.1767 50.2455 70.2689 50.1574C70.361 50.0692 70.4095 49.9602 70.4144 49.832V45.7206C70.4095 45.5924 70.361 45.4818 70.2689 45.3904C70.1767 45.299 70.0652 45.2542 69.9359 45.2542H69.8389V45.1804H71.8564C72.3091 45.1804 72.6664 45.3054 72.925 45.5539C73.1837 45.8039 73.313 46.1261 73.313 46.5236C73.313 46.9211 73.1902 47.2642 72.9428 47.5527C72.6955 47.8412 72.3964 47.9855 72.0424 47.9855C72.1167 48.0207 72.2056 48.088 72.3075 48.189C72.4093 48.29 72.4999 48.3958 72.5807 48.5032C73.0091 49.1107 73.2872 49.4842 73.4181 49.6252C73.5474 49.7663 73.6396 49.8624 73.6946 49.9137C73.7495 49.965 73.8093 50.0163 73.874 50.066C73.9387 50.1157 74.0033 50.1542 74.068 50.1846C74.2119 50.2535 74.3671 50.2888 74.532 50.2888V50.3625H74.1213C73.9063 50.3625 73.7075 50.3241 73.5232 50.2471C73.3389 50.1702 73.1999 50.0916 73.1093 50.0099C73.0172 49.9282 72.938 49.8496 72.8701 49.7727C72.8022 49.6957 72.6179 49.4409 72.3139 49.0065C72.01 48.5721 71.8338 48.3237 71.7837 48.2628C71.7336 48.2002 71.6818 48.1409 71.6269 48.0816C71.4668 47.9133 71.3084 47.83 71.1483 47.83V47.7562C71.1888 47.7611 71.2405 47.7643 71.3052 47.7643C71.3698 47.7643 71.449 47.7627 71.5444 47.7562C72.162 47.7418 72.55 47.4854 72.71 46.9853C72.7407 46.8859 72.7553 46.7945 72.7553 46.708V46.5413C72.7456 46.2111 72.6583 45.9434 72.4934 45.7414C72.3285 45.5395 72.107 45.4305 71.829 45.416C71.7093 45.4112 71.5606 45.408 71.3811 45.408H71.3795Z" fill="url(#paint12_linear_1_614)"/>
<path d="M78.9551 45.2526H78.85C78.7012 45.2526 78.5606 45.2926 78.428 45.3744C78.2955 45.4561 78.1855 45.5587 78.095 45.6821L76.6239 48.0528V49.8224C76.6239 49.9506 76.6691 50.0612 76.7613 50.1526C76.8534 50.2439 76.9666 50.2904 77.1008 50.2904H77.1897V50.3641H75.5617V50.2904H75.6587C75.7881 50.2904 75.8996 50.2455 75.9918 50.1574C76.0839 50.0692 76.1324 49.9602 76.1373 49.832V48.0464L74.7098 45.6837C74.6354 45.5651 74.5287 45.4641 74.3929 45.3808C74.2555 45.2974 74.1132 45.2542 73.9629 45.2542H73.8578V45.1804H75.6959V45.2542H75.5989C75.489 45.2542 75.4049 45.3038 75.3451 45.4016C75.316 45.4561 75.2998 45.509 75.2998 45.5603C75.2998 45.6116 75.3128 45.6629 75.337 45.7126L76.4574 47.7867L77.652 45.7046C77.6763 45.6549 77.6892 45.6052 77.6892 45.5571C77.6892 45.509 77.6714 45.4561 77.6375 45.4016C77.5777 45.3022 77.4936 45.2542 77.3837 45.2542H77.2948V45.1804H78.9534V45.2542L78.9551 45.2526Z" fill="url(#paint13_linear_1_614)"/>
<path d="M2.35222 54.546C2.35222 55.0733 1.95776 55.4003 1.3208 55.4003H0.774378V56.0927H0.324951V53.6932H1.3208C1.95776 53.6932 2.35222 54.0154 2.35222 54.5476V54.546ZM1.89956 54.546C1.89956 54.2446 1.69586 54.0699 1.3014 54.0699H0.775994V55.0236H1.3014C1.69586 55.0236 1.89956 54.8489 1.89956 54.5476V54.546Z" fill="url(#paint14_linear_1_614)"/>
<path d="M5.12474 53.6917V56.0912H4.67532V55.0621H3.42404V56.0912H2.97461V53.6917H3.42404V54.6822H4.67532V53.6917H5.12474Z" fill="url(#paint15_linear_1_614)"/>
<path d="M5.92664 55.0461V53.6917H6.37606V55.0285C6.37606 55.5221 6.60078 55.7353 6.992 55.7353C7.38323 55.7353 7.60471 55.5221 7.60471 55.0285V53.6917H8.04767V55.0461C8.04767 55.7449 7.64998 56.1264 6.98877 56.1264C6.32756 56.1264 5.92664 55.7449 5.92664 55.0461ZM6.78507 56.5848C6.78507 56.4646 6.8756 56.3765 6.992 56.3765C7.1084 56.3765 7.19893 56.4662 7.19893 56.5848C7.19893 56.7035 7.1084 56.7868 6.992 56.7868C6.8756 56.7868 6.78507 56.7083 6.78507 56.5848Z" fill="url(#paint16_linear_1_614)"/>
<path d="M8.67493 54.8922C8.67493 54.1757 9.22782 53.658 9.97147 53.658C10.3659 53.658 10.7054 53.799 10.9301 54.0587L10.6391 54.3296C10.4629 54.1404 10.2447 54.0491 9.99249 54.0491C9.49133 54.0491 9.12759 54.3985 9.12759 54.8922C9.12759 55.3859 9.49133 55.7353 9.99249 55.7353C10.2447 55.7353 10.4629 55.6423 10.6391 55.45L10.9301 55.7241C10.7054 55.9853 10.3659 56.1248 9.96824 56.1248C9.22782 56.1248 8.67493 55.6071 8.67493 54.8906V54.8922Z" fill="url(#paint17_linear_1_614)"/>
<path d="M14.8748 53.6917L13.8207 56.0912H13.3777L12.3188 53.6917H12.8071L13.6122 55.543L14.4253 53.6917H14.8748Z" fill="url(#paint18_linear_1_614)"/>
<path d="M15.3339 55.0461V53.6917H15.7833V55.0285C15.7833 55.5221 16.008 55.7353 16.3992 55.7353C16.7905 55.7353 17.0119 55.5221 17.0119 55.0285V53.6917H17.4549V55.0461C17.4549 55.7449 17.0572 56.1264 16.396 56.1264C15.7348 56.1264 15.3339 55.7449 15.3339 55.0461ZM16.1923 56.5848C16.1923 56.4646 16.2828 56.3765 16.3992 56.3765C16.5156 56.3765 16.6062 56.4662 16.6062 56.5848C16.6062 56.7035 16.5156 56.7868 16.3992 56.7868C16.2828 56.7868 16.1923 56.7083 16.1923 56.5848Z" fill="url(#paint19_linear_1_614)"/>
<path d="M19.8734 54.0683H19.0715V53.6917H21.1263V54.0683H20.3244V56.0912H19.875V54.0683H19.8734Z" fill="url(#paint20_linear_1_614)"/>
<path d="M23.3281 56.0912L23.0856 55.535H21.8747L21.6355 56.0912H21.1715L22.2611 53.6917H22.7041L23.7969 56.0912H23.3265H23.3281ZM22.1803 53.4961H21.8246L22.2886 53.0265H22.6831L23.147 53.4961H22.7914L22.4875 53.2429L22.1835 53.4961H22.1803ZM22.9385 55.1872L22.4826 54.1373L22.0299 55.1872H22.9401H22.9385ZM22.6928 56.5865C22.6928 56.7099 22.6022 56.7884 22.4858 56.7884C22.3694 56.7884 22.2789 56.7099 22.2789 56.5865C22.2789 56.4631 22.3694 56.3781 22.4858 56.3781C22.6022 56.3781 22.6928 56.4679 22.6928 56.5865Z" fill="url(#paint21_linear_1_614)"/>
<path d="M26.4288 53.6917V56.0912H26.0586L24.7233 54.4658V56.0912H24.2771V53.6917H24.6473L25.9827 55.317V53.6917H26.4288Z" fill="url(#paint22_linear_1_614)"/>
<path d="M28.87 54.0683H28.0681V53.6917H30.1229V54.0683H29.321V56.0912H28.8716V54.0683H28.87Z" fill="url(#paint23_linear_1_614)"/>
<path d="M32.0823 55.5366H30.8715L30.6322 56.0928H30.1682L31.2578 53.6933H31.7008L32.7936 56.0928H32.3232L32.0807 55.5366H32.0823ZM31.177 53.4961H30.8213L31.2853 53.0265H31.6798L32.1437 53.4961H31.7881L31.4842 53.2429L31.1802 53.4961H31.177ZM31.9352 55.1872L31.4793 54.1373L31.0266 55.1872H31.9368H31.9352Z" fill="url(#paint24_linear_1_614)"/>
<path d="M35.4983 56.0912L35.495 54.4995L34.6997 55.8155H34.4992L33.7038 54.5188V56.0896H33.2754V53.6901H33.6456L34.6075 55.2817L35.5516 53.6901H35.9218L35.9251 56.0896H35.4999L35.4983 56.0912Z" fill="url(#paint25_linear_1_614)"/>
<path d="M37.7761 54.6998H38.7267V55.0557H37.7761V54.6998Z" fill="url(#paint26_linear_1_614)"/>
<path d="M42.7278 53.6917V56.0912H42.3576L41.0222 54.4658V56.0912H40.576V53.6917H40.9463L42.2816 55.317V53.6917H42.7278Z" fill="url(#paint27_linear_1_614)"/>
<path d="M45.1205 55.5366H43.9097L43.6704 56.0928H43.2064L44.296 53.6933H44.739L45.8318 56.0928H45.3614L45.1189 55.5366H45.1205ZM44.2136 53.4961H43.8579L44.3219 53.0265H44.7164L45.1803 53.4961H44.8247L44.5208 53.2429L44.2168 53.4961H44.2136ZM44.9718 55.1872L44.5159 54.1373L44.0632 55.1872H44.9734H44.9718Z" fill="url(#paint28_linear_1_614)"/>
<path d="M48.4638 53.6917V56.0912H48.0935L46.7582 54.4658V56.0912H46.312V53.6917H46.6822L48.0176 55.317V53.6917H48.4638Z" fill="url(#paint29_linear_1_614)"/>
<path d="M50.9387 54.8649H51.3639V55.8218C51.1117 56.0238 50.7593 56.1264 50.4166 56.1264C49.6664 56.1264 49.1119 55.6087 49.1119 54.8922C49.1119 54.1757 49.6648 53.658 50.423 53.658C50.8272 53.658 51.1667 53.791 51.3946 54.0491L51.1117 54.3232C50.921 54.134 50.7043 54.0491 50.444 54.0491C49.9283 54.0491 49.5662 54.3953 49.5662 54.8922C49.5662 55.3891 49.93 55.7353 50.4408 55.7353C50.6138 55.7353 50.7835 55.7016 50.9387 55.6119V54.8649Z" fill="url(#paint30_linear_1_614)"/>
<path d="M53.7468 54.0683H52.9449V53.6917H54.9997V54.0683H54.1978V56.0912H53.7484V54.0683H53.7468Z" fill="url(#paint31_linear_1_614)"/>
<path d="M56.9591 55.5366H55.7483L55.509 56.0928H55.045L56.1347 53.6933H56.5776L57.6705 56.0928H57.2L56.9575 55.5366H56.9591ZM56.0571 53.4961H55.6982L56.1654 53.1291H56.5534L57.0206 53.4961H56.6617L56.361 53.307L56.0603 53.4961H56.0571ZM56.8104 55.1872L56.3545 54.1373L55.9019 55.1872H56.812H56.8104ZM56.9381 53.182L56.4127 52.7812H56.8767L57.2712 53.182H56.9397H56.9381Z" fill="url(#paint32_linear_1_614)"/>
<path d="M60.3751 56.0912L60.3719 54.4995L59.5765 55.8155H59.376L58.5806 54.5188V56.0896H58.1522V53.6901H58.5224L59.4843 55.2817L60.4285 53.6901H60.7987L60.8019 56.0896H60.3767L60.3751 56.0912Z" fill="url(#paint33_linear_1_614)"/>
<path d="M64.9033 53.6917V56.0912H64.5331L63.1978 54.4658V56.0912H62.7516V53.6917H63.1218L64.4571 55.317V53.6917H64.9033Z" fill="url(#paint34_linear_1_614)"/>
<path d="M67.8779 53.6917V56.0912H67.4285V55.0621H66.1772V56.0912H65.7278V53.6917H66.1772V54.6822H67.4285V53.6917H67.8779Z" fill="url(#paint35_linear_1_614)"/>
<path d="M70.2706 55.5365H69.0597L68.8204 56.0927H68.3564L69.4461 53.6932H69.889L70.9819 56.0927H70.5114L70.2689 55.5365H70.2706ZM70.1218 55.1871L69.6659 54.1372L69.2133 55.1871H70.1234H70.1218Z" fill="url(#paint36_linear_1_614)"/>
<path d="M73.6138 53.6917V56.0912H73.2436L71.9082 54.4658V56.0912H71.462V53.6917H71.8322L73.1676 55.317V53.6917H73.6138Z" fill="url(#paint37_linear_1_614)"/>
<path d="M75.3582 55.8379L75.5134 55.4917C75.7073 55.6455 76.0145 55.7561 76.312 55.7561C76.6886 55.7561 76.8487 55.6231 76.8487 55.4436C76.8487 54.9258 75.4099 55.2656 75.4099 54.3744C75.4099 53.9865 75.7219 53.658 76.3847 53.658C76.6757 53.658 76.9796 53.7333 77.1898 53.8711L77.0475 54.2174C76.8293 54.0907 76.5916 54.0282 76.3799 54.0282C76.0064 54.0282 75.8545 54.1725 75.8545 54.3536C75.8545 54.8649 77.29 54.5315 77.29 55.4131C77.29 55.7978 76.9748 56.1264 76.312 56.1264C75.9353 56.1264 75.5586 56.0094 75.3582 55.8379Z" fill="url(#paint38_linear_1_614)"/>
<path d="M79.4806 55.5366H78.2698L78.0305 56.0928H77.5665L78.6561 53.6933H79.0991L80.192 56.0928H79.7215L79.479 55.5366H79.4806ZM78.2811 53.129H78.5575C78.5705 53.2316 78.703 53.2973 78.8792 53.2973C79.0555 53.2973 79.1864 53.2316 79.201 53.129H79.4774C79.4532 53.3727 79.2107 53.5201 78.8792 53.5201C78.5478 53.5201 78.3053 53.3727 78.2811 53.129ZM79.3319 55.1871L78.876 54.1373L78.4234 55.1871H79.3335H79.3319ZM78.9439 53.0377H78.6125L79.007 52.637H79.4709L78.9455 53.0377H78.9439Z" fill="url(#paint39_linear_1_614)"/>
<path d="M80.4651 54.8922C80.4651 54.1757 81.018 53.658 81.7616 53.658C82.1561 53.658 82.4956 53.799 82.7203 54.0587L82.4293 54.3296C82.2531 54.1404 82.0348 54.0491 81.7826 54.0491C81.2815 54.0491 80.9177 54.3985 80.9177 54.8922C80.9177 55.3859 81.2815 55.7353 81.7826 55.7353C82.0348 55.7353 82.2531 55.6423 82.4293 55.45L82.7203 55.7241C82.4956 55.9853 82.1561 56.1248 81.7584 56.1248C81.018 56.1248 80.4651 55.6071 80.4651 54.8906V54.8922Z" fill="url(#paint40_linear_1_614)"/>
<path d="M38.038 36.807C38.0558 36.8278 38.0752 36.8503 38.093 36.8711L30.8876 9.67505H30.7841L26.8298 14.2497L38.0396 36.807H38.038Z" fill="url(#paint41_linear_1_614)"/>
<path d="M20.0205 9.64929L26.8298 14.2496L30.7841 9.67494L20.0205 9.64929Z" fill="url(#paint42_linear_1_614)"/>
<path d="M26.8298 14.2495L20.0221 9.65088C21.8586 13.6693 26.1395 19.1928 28.8231 23.1872C31.5665 27.281 35.0375 33.2725 38.038 36.8085L26.8298 14.2495Z" fill="url(#paint43_linear_1_614)"/>
<path fill-rule="evenodd" clip-rule="evenodd" d="M49.8055 9.65102L49.82 9.59973H33.3319L41.4992 14.9101L49.8055 9.65102Z" fill="url(#paint44_linear_1_614)"/>
<path fill-rule="evenodd" clip-rule="evenodd" d="M41.4991 5.11316L34.9485 7.40207L47.8558 7.42611L41.4991 5.11316Z" fill="url(#paint45_linear_1_614)"/>
<path fill-rule="evenodd" clip-rule="evenodd" d="M29.756 3.80204L28.8296 2.13184L20.9647 7.35402C20.955 7.37005 20.9437 7.38608 20.934 7.4021L21.2347 7.40531L31.7735 7.50309C31.78 7.49347 31.7865 7.48545 31.7946 7.47744L29.756 3.80204Z" fill="url(#paint46_linear_1_614)"/>
<path fill-rule="evenodd" clip-rule="evenodd" d="M37.9636 0.330196C34.7659 0.00320881 29.3954 -0.431172 27.3665 0.972951C25.8501 2.02925 21.9281 5.83929 20.9646 7.35402L28.8296 2.13183L29.0624 2.09016L37.3622 0.585054L38.4728 0.383091C38.3112 0.36546 38.1398 0.347828 37.9636 0.330196Z" fill="url(#paint47_linear_1_614)"/>
<path fill-rule="evenodd" clip-rule="evenodd" d="M45.0365 0.330196C48.2342 0.00320881 53.6047 -0.431172 55.6336 0.972951C57.15 2.02925 61.0719 5.83929 62.0355 7.35402L54.1705 2.13183L53.9377 2.09016L45.6379 0.585054L44.5272 0.383091C44.6889 0.36546 44.8602 0.347828 45.0365 0.330196Z" fill="url(#paint48_linear_1_614)"/>
<path fill-rule="evenodd" clip-rule="evenodd" d="M37.3622 0.585004L29.0624 2.09011L28.8296 2.13178L29.7559 3.80198L31.7945 7.47739C31.801 7.46777 31.8091 7.45975 31.8155 7.45014C34.1451 4.4223 36.4715 2.84346 38.4729 0.384644L37.3622 0.586606V0.585004Z" fill="url(#paint49_linear_1_614)"/>
<path d="M44.9604 36.8069C44.9426 36.8277 44.9232 36.8502 44.9054 36.871L52.1108 9.67334H52.2142L56.1685 14.248L44.9587 36.8053L44.9604 36.8069Z" fill="url(#paint50_linear_1_614)"/>
<path d="M62.9779 9.64929L56.1703 14.2496L52.2159 9.67494L62.9779 9.64929Z" fill="url(#paint51_linear_1_614)"/>
<path d="M56.1702 14.2495L62.9779 9.65088C61.1414 13.6693 56.8605 19.1928 54.1769 23.1872C51.4335 27.281 47.9625 33.2725 44.962 36.8085L56.1718 14.2511L56.1702 14.2495Z" fill="url(#paint52_linear_1_614)"/>
<path fill-rule="evenodd" clip-rule="evenodd" d="M53.244 3.80204L54.1704 2.13184L62.0353 7.35402C62.045 7.37005 62.0563 7.38608 62.066 7.4021L61.7653 7.40531L51.2265 7.50309C51.22 7.49347 51.2135 7.48545 51.2054 7.47744L53.244 3.80204Z" fill="url(#paint53_linear_1_614)"/>
<path fill-rule="evenodd" clip-rule="evenodd" d="M45.6379 0.585004L53.9377 2.09011L54.1705 2.13178L53.2442 3.80198L51.2056 7.47739C51.1991 7.46777 51.191 7.45975 51.1846 7.45014C48.855 4.4223 46.5286 2.84346 44.5272 0.384644L45.6379 0.586606V0.585004Z" fill="url(#paint54_linear_1_614)"/>
<path d="M33.3319 9.59973L41.5234 39.1456L41.4992 14.9101L33.3319 9.59973Z" fill="url(#paint55_linear_1_614)"/>
<path d="M49.8054 9.65088L41.4991 14.9099L41.5234 39.1455L41.5509 39.2448L49.8054 9.65088Z" fill="url(#paint56_linear_1_614)"/>
<path d="M41.5381 0.960083L38.2078 3.99914C36.9031 5.20451 35.8653 6.02037 34.9147 7.40206H34.9486L41.4993 5.11314L41.509 5.11635L41.5542 0.976112L41.5381 0.960083Z" fill="url(#paint57_linear_1_614)"/>
<path d="M48.0854 7.42777C47.1607 6.17272 46.2618 5.39372 45.1092 4.28933L41.5542 0.977783L41.5089 5.11802L47.8558 7.42937H48.0854V7.42777Z" fill="url(#paint58_linear_1_614)"/>
</g>
<defs>
<linearGradient id="paint0_linear_1_614" x1="41.7238" y1="51.704" x2="41.7238" y2="45.0377" gradientUnits="userSpaceOnUse">
<stop stop-color="#FAF28C"/>
<stop offset="1" stop-color="#E5B96D"/>
</linearGradient>
<linearGradient id="paint1_linear_1_614" x1="41.7239" y1="51.704" x2="41.7239" y2="45.0377" gradientUnits="userSpaceOnUse">
<stop stop-color="#FAF28C"/>
<stop offset="1" stop-color="#E5B96D"/>
</linearGradient>
<linearGradient id="paint2_linear_1_614" x1="41.7238" y1="51.7041" x2="41.7238" y2="45.0377" gradientUnits="userSpaceOnUse">
<stop stop-color="#FAF28C"/>
<stop offset="1" stop-color="#E5B96D"/>
</linearGradient>
<linearGradient id="paint3_linear_1_614" x1="41.7239" y1="51.7041" x2="41.7239" y2="45.0378" gradientUnits="userSpaceOnUse">
<stop stop-color="#FAF28C"/>
<stop offset="1" stop-color="#E5B96D"/>
</linearGradient>
<linearGradient id="paint4_linear_1_614" x1="41.7238" y1="51.7041" x2="41.7238" y2="45.0377" gradientUnits="userSpaceOnUse">
<stop stop-color="#FAF28C"/>
<stop offset="1" stop-color="#E5B96D"/>
</linearGradient>
<linearGradient id="paint5_linear_1_614" x1="41.7238" y1="51.7041" x2="41.7238" y2="45.0378" gradientUnits="userSpaceOnUse">
<stop stop-color="#FAF28C"/>
<stop offset="1" stop-color="#E5B96D"/>
</linearGradient>
<linearGradient id="paint6_linear_1_614" x1="41.7238" y1="51.7041" x2="41.7238" y2="45.0377" gradientUnits="userSpaceOnUse">
<stop stop-color="#FAF28C"/>
<stop offset="1" stop-color="#E5B96D"/>
</linearGradient>
<linearGradient id="paint7_linear_1_614" x1="41.7239" y1="51.7041" x2="41.7239" y2="45.0377" gradientUnits="userSpaceOnUse">
<stop stop-color="#FAF28C"/>
<stop offset="1" stop-color="#E5B96D"/>
</linearGradient>
<linearGradient id="paint8_linear_1_614" x1="41.7239" y1="51.704" x2="41.7239" y2="45.0377" gradientUnits="userSpaceOnUse">
<stop stop-color="#FAF28C"/>
<stop offset="1" stop-color="#E5B96D"/>
</linearGradient>
<linearGradient id="paint9_linear_1_614" x1="41.7238" y1="51.704" x2="41.7238" y2="45.0377" gradientUnits="userSpaceOnUse">
<stop stop-color="#FAF28C"/>
<stop offset="1" stop-color="#E5B96D"/>
</linearGradient>
<linearGradient id="paint10_linear_1_614" x1="41.7239" y1="51.704" x2="41.7239" y2="45.0377" gradientUnits="userSpaceOnUse">
<stop stop-color="#FAF28C"/>
<stop offset="1" stop-color="#E5B96D"/>
</linearGradient>
<linearGradient id="paint11_linear_1_614" x1="41.7238" y1="51.704" x2="41.7238" y2="45.0377" gradientUnits="userSpaceOnUse">
<stop stop-color="#FAF28C"/>
<stop offset="1" stop-color="#E5B96D"/>
</linearGradient>
<linearGradient id="paint12_linear_1_614" x1="41.7239" y1="51.7041" x2="41.7239" y2="45.0378" gradientUnits="userSpaceOnUse">
<stop stop-color="#FAF28C"/>
<stop offset="1" stop-color="#E5B96D"/>
</linearGradient>
<linearGradient id="paint13_linear_1_614" x1="41.7238" y1="51.7041" x2="41.7238" y2="45.0378" gradientUnits="userSpaceOnUse">
<stop stop-color="#FAF28C"/>
<stop offset="1" stop-color="#E5B96D"/>
</linearGradient>
<linearGradient id="paint14_linear_1_614" x1="41.5235" y1="56.7884" x2="41.5235" y2="52.6353" gradientUnits="userSpaceOnUse">
<stop stop-color="#FAF28C"/>
<stop offset="1" stop-color="#E5B96D"/>
</linearGradient>
<linearGradient id="paint15_linear_1_614" x1="41.5234" y1="56.7884" x2="41.5234" y2="52.6354" gradientUnits="userSpaceOnUse">
<stop stop-color="#FAF28C"/>
<stop offset="1" stop-color="#E5B96D"/>
</linearGradient>
<linearGradient id="paint16_linear_1_614" x1="41.5235" y1="56.7884" x2="41.5235" y2="52.6354" gradientUnits="userSpaceOnUse">
<stop stop-color="#FAF28C"/>
<stop offset="1" stop-color="#E5B96D"/>
</linearGradient>
<linearGradient id="paint17_linear_1_614" x1="41.5235" y1="56.7884" x2="41.5235" y2="52.6353" gradientUnits="userSpaceOnUse">
<stop stop-color="#FAF28C"/>
<stop offset="1" stop-color="#E5B96D"/>
</linearGradient>
<linearGradient id="paint18_linear_1_614" x1="41.5235" y1="56.7884" x2="41.5235" y2="52.6354" gradientUnits="userSpaceOnUse">
<stop stop-color="#FAF28C"/>
<stop offset="1" stop-color="#E5B96D"/>
</linearGradient>
<linearGradient id="paint19_linear_1_614" x1="41.5235" y1="56.7884" x2="41.5235" y2="52.6354" gradientUnits="userSpaceOnUse">
<stop stop-color="#FAF28C"/>
<stop offset="1" stop-color="#E5B96D"/>
</linearGradient>
<linearGradient id="paint20_linear_1_614" x1="41.5234" y1="56.7884" x2="41.5234" y2="52.6354" gradientUnits="userSpaceOnUse">
<stop stop-color="#FAF28C"/>
<stop offset="1" stop-color="#E5B96D"/>
</linearGradient>
<linearGradient id="paint21_linear_1_614" x1="41.5234" y1="56.7884" x2="41.5234" y2="52.6354" gradientUnits="userSpaceOnUse">
<stop stop-color="#FAF28C"/>
<stop offset="1" stop-color="#E5B96D"/>
</linearGradient>
<linearGradient id="paint22_linear_1_614" x1="41.5234" y1="56.7884" x2="41.5234" y2="52.6354" gradientUnits="userSpaceOnUse">
<stop stop-color="#FAF28C"/>
<stop offset="1" stop-color="#E5B96D"/>
</linearGradient>
<linearGradient id="paint23_linear_1_614" x1="41.5234" y1="56.7884" x2="41.5234" y2="52.6354" gradientUnits="userSpaceOnUse">
<stop stop-color="#FAF28C"/>
<stop offset="1" stop-color="#E5B96D"/>
</linearGradient>
<linearGradient id="paint24_linear_1_614" x1="41.5235" y1="56.7884" x2="41.5235" y2="52.6354" gradientUnits="userSpaceOnUse">
<stop stop-color="#FAF28C"/>
<stop offset="1" stop-color="#E5B96D"/>
</linearGradient>
<linearGradient id="paint25_linear_1_614" x1="41.5235" y1="56.7884" x2="41.5235" y2="52.6354" gradientUnits="userSpaceOnUse">
<stop stop-color="#FAF28C"/>
<stop offset="1" stop-color="#E5B96D"/>
</linearGradient>
<linearGradient id="paint26_linear_1_614" x1="41.5235" y1="56.7884" x2="41.5235" y2="52.6353" gradientUnits="userSpaceOnUse">
<stop stop-color="#FAF28C"/>
<stop offset="1" stop-color="#E5B96D"/>
</linearGradient>
<linearGradient id="paint27_linear_1_614" x1="41.5234" y1="56.7884" x2="41.5234" y2="52.6354" gradientUnits="userSpaceOnUse">
<stop stop-color="#FAF28C"/>
<stop offset="1" stop-color="#E5B96D"/>
</linearGradient>
<linearGradient id="paint28_linear_1_614" x1="41.5235" y1="56.7884" x2="41.5235" y2="52.6354" gradientUnits="userSpaceOnUse">
<stop stop-color="#FAF28C"/>
<stop offset="1" stop-color="#E5B96D"/>
</linearGradient>
<linearGradient id="paint29_linear_1_614" x1="41.5235" y1="56.7884" x2="41.5235" y2="52.6354" gradientUnits="userSpaceOnUse">
<stop stop-color="#FAF28C"/>
<stop offset="1" stop-color="#E5B96D"/>
</linearGradient>
<linearGradient id="paint30_linear_1_614" x1="41.5234" y1="56.7884" x2="41.5234" y2="52.6353" gradientUnits="userSpaceOnUse">
<stop stop-color="#FAF28C"/>
<stop offset="1" stop-color="#E5B96D"/>
</linearGradient>
<linearGradient id="paint31_linear_1_614" x1="41.5234" y1="56.7884" x2="41.5234" y2="52.6354" gradientUnits="userSpaceOnUse">
<stop stop-color="#FAF28C"/>
<stop offset="1" stop-color="#E5B96D"/>
</linearGradient>
<linearGradient id="paint32_linear_1_614" x1="41.5234" y1="56.7884" x2="41.5234" y2="52.6354" gradientUnits="userSpaceOnUse">
<stop stop-color="#FAF28C"/>
<stop offset="1" stop-color="#E5B96D"/>
</linearGradient>
<linearGradient id="paint33_linear_1_614" x1="41.5234" y1="56.7884" x2="41.5234" y2="52.6354" gradientUnits="userSpaceOnUse">
<stop stop-color="#FAF28C"/>
<stop offset="1" stop-color="#E5B96D"/>
</linearGradient>
<linearGradient id="paint34_linear_1_614" x1="41.5235" y1="56.7884" x2="41.5235" y2="52.6354" gradientUnits="userSpaceOnUse">
<stop stop-color="#FAF28C"/>
<stop offset="1" stop-color="#E5B96D"/>
</linearGradient>
<linearGradient id="paint35_linear_1_614" x1="41.5234" y1="56.7884" x2="41.5234" y2="52.6354" gradientUnits="userSpaceOnUse">
<stop stop-color="#FAF28C"/>
<stop offset="1" stop-color="#E5B96D"/>
</linearGradient>
<linearGradient id="paint36_linear_1_614" x1="41.5234" y1="56.7884" x2="41.5234" y2="52.6353" gradientUnits="userSpaceOnUse">
<stop stop-color="#FAF28C"/>
<stop offset="1" stop-color="#E5B96D"/>
</linearGradient>
<linearGradient id="paint37_linear_1_614" x1="41.5235" y1="56.7884" x2="41.5235" y2="52.6354" gradientUnits="userSpaceOnUse">
<stop stop-color="#FAF28C"/>
<stop offset="1" stop-color="#E5B96D"/>
</linearGradient>
<linearGradient id="paint38_linear_1_614" x1="41.5235" y1="56.7884" x2="41.5235" y2="52.6353" gradientUnits="userSpaceOnUse">
<stop stop-color="#FAF28C"/>
<stop offset="1" stop-color="#E5B96D"/>
</linearGradient>
<linearGradient id="paint39_linear_1_614" x1="41.5235" y1="56.7884" x2="41.5235" y2="52.6354" gradientUnits="userSpaceOnUse">
<stop stop-color="#FAF28C"/>
<stop offset="1" stop-color="#E5B96D"/>
</linearGradient>
<linearGradient id="paint40_linear_1_614" x1="41.5235" y1="56.7884" x2="41.5235" y2="52.6353" gradientUnits="userSpaceOnUse">
<stop stop-color="#FAF28C"/>
<stop offset="1" stop-color="#E5B96D"/>
</linearGradient>
<linearGradient id="paint41_linear_1_614" x1="25.6141" y1="19.8934" x2="32.1357" y2="22.42" gradientUnits="userSpaceOnUse">
<stop stop-color="#E5B96D"/>
<stop offset="1" stop-color="#FAF28C"/>
</linearGradient>
<linearGradient id="paint42_linear_1_614" x1="25.8" y1="13.5443" x2="25.4408" y2="9.96765" gradientUnits="userSpaceOnUse">
<stop stop-color="#FAF28C"/>
<stop offset="1" stop-color="#E5B96D"/>
</linearGradient>
<linearGradient id="paint43_linear_1_614" x1="20.0205" y1="23.2289" x2="38.038" y2="23.2289" gradientUnits="userSpaceOnUse">
<stop stop-color="#E5B96D"/>
<stop offset="1" stop-color="#FAF28C"/>
</linearGradient>
<linearGradient id="paint44_linear_1_614" x1="41.593" y1="10.3932" x2="41.6963" y2="15.1105" gradientUnits="userSpaceOnUse">
<stop stop-color="#FAF28C"/>
<stop offset="1" stop-color="#E5B96D"/>
</linearGradient>
<linearGradient id="paint45_linear_1_614" x1="41.4021" y1="5.5796" x2="41.4021" y2="7.48382" gradientUnits="userSpaceOnUse">
<stop stop-color="#FAF28C"/>
<stop offset="1" stop-color="#E5B96D"/>
</linearGradient>
<linearGradient id="paint46_linear_1_614" x1="20.934" y1="4.81666" x2="31.7946" y2="4.81666" gradientUnits="userSpaceOnUse">
<stop stop-color="#FAF28C"/>
<stop offset="1" stop-color="#E5B96D"/>
</linearGradient>
<linearGradient id="paint47_linear_1_614" x1="31.2675" y1="1.04508" x2="30.0518" y2="3.29944" gradientUnits="userSpaceOnUse">
<stop stop-color="#FAF28C"/>
<stop offset="1" stop-color="#E5B96D"/>
</linearGradient>
<linearGradient id="paint48_linear_1_614" x1="51.731" y1="1.04508" x2="52.9483" y2="3.29946" gradientUnits="userSpaceOnUse">
<stop stop-color="#FAF28C"/>
<stop offset="1" stop-color="#E5B96D"/>
</linearGradient>
<linearGradient id="paint49_linear_1_614" x1="28.8296" y1="3.93021" x2="38.4729" y2="3.93021" gradientUnits="userSpaceOnUse">
<stop stop-color="#FAF28C"/>
<stop offset="1" stop-color="#E5B96D"/>
</linearGradient>
<linearGradient id="paint50_linear_1_614" x1="57.3859" y1="19.8933" x2="50.8642" y2="22.4199" gradientUnits="userSpaceOnUse">
<stop stop-color="#E5B96D"/>
<stop offset="1" stop-color="#FAF28C"/>
</linearGradient>
<linearGradient id="paint51_linear_1_614" x1="57.2" y1="13.5443" x2="57.5593" y2="9.96765" gradientUnits="userSpaceOnUse">
<stop stop-color="#FAF28C"/>
<stop offset="1" stop-color="#E5B96D"/>
</linearGradient>
<linearGradient id="paint52_linear_1_614" x1="62.9779" y1="23.2289" x2="44.9604" y2="23.2289" gradientUnits="userSpaceOnUse">
<stop stop-color="#E5B96D"/>
<stop offset="1" stop-color="#FAF28C"/>
</linearGradient>
<linearGradient id="paint53_linear_1_614" x1="62.066" y1="4.81666" x2="51.2054" y2="4.81666" gradientUnits="userSpaceOnUse">
<stop stop-color="#FAF28C"/>
<stop offset="1" stop-color="#E5B96D"/>
</linearGradient>
<linearGradient id="paint54_linear_1_614" x1="54.1705" y1="3.93021" x2="44.5272" y2="3.93021" gradientUnits="userSpaceOnUse">
<stop stop-color="#FAF28C"/>
<stop offset="1" stop-color="#E5B96D"/>
</linearGradient>
<linearGradient id="paint55_linear_1_614" x1="37.4479" y1="12.4897" x2="40.2744" y2="33.8016" gradientUnits="userSpaceOnUse">
<stop stop-color="#FAF28C"/>
<stop offset="1" stop-color="#E5B96D"/>
</linearGradient>
<linearGradient id="paint56_linear_1_614" x1="45.5812" y1="12.6659" x2="41.3133" y2="36.2123" gradientUnits="userSpaceOnUse">
<stop stop-color="#E5B96D"/>
<stop offset="1" stop-color="#FAF28C"/>
</linearGradient>
<linearGradient id="paint57_linear_1_614" x1="34.9147" y1="4.18187" x2="41.5542" y2="4.18187" gradientUnits="userSpaceOnUse">
<stop stop-color="#FAF28C"/>
<stop offset="1" stop-color="#E5B96D"/>
</linearGradient>
<linearGradient id="paint58_linear_1_614" x1="41.5089" y1="4.20117" x2="48.0854" y2="4.20117" gradientUnits="userSpaceOnUse">
<stop stop-color="#FAF28C"/>
<stop offset="1" stop-color="#E5B96D"/>
</linearGradient>
<clipPath id="clip0_1_614">
<rect width="83" height="57" fill="white"/>
</clipPath>
</defs>
</svg>
